G04 ================== begin FILE IDENTIFICATION RECORD ==================*
G04 Layout Name:  LAYOUT.brd*
G04 Film Name:    SMTOP*
G04 File Format:  Gerber RS274X*
G04 File Origin:  Cadence Allegro 16.6-2015-S059*
G04 Origin Date:  Sat Nov 23 16:01:41 2024*
G04 *
G04 Layer:  VIA CLASS/SOLDERMASK_TOP*
G04 Layer:  PIN/SOLDERMASK_TOP*
G04 Layer:  DRC ERROR CLASS/SOLDERMASK_TOP*
G04 *
G04 Offset:    (0.00 0.00)*
G04 Mirror:    No*
G04 Mode:      Positive*
G04 Rotation:  0*
G04 FullContactRelief:  No*
G04 UndefLineWidth:     0.00*
G04 ================== end FILE IDENTIFICATION RECORD ====================*
%FSLAX25Y25*MOIN*%
%IR0*IPPOS*OFA0.00000B0.00000*MIA0B0*SFA1.00000B1.00000*%
%ADD11R,.09X.13*%
%ADD16C,.05*%
%ADD10C,.08*%
%ADD13R,.06X.06*%
%ADD14R,.061X.061*%
%ADD18R,.07X.09*%
%ADD15R,.06X.046*%
%ADD19R,.088X.061*%
%ADD17R,.061X.088*%
%ADD12R,.058X.086*%
%LPD*%
G75*
G54D10*
X20000Y20000D03*
X137500Y137500D03*
G54D11*
X24500Y32500D03*
X12500D03*
X113000Y142500D03*
X142000Y15000D03*
X130000D03*
X125000Y142500D03*
G54D12*
X12500Y75000D03*
X20400D03*
X122500Y125000D03*
X114600D03*
G54D13*
X12500Y60000D03*
Y51600D03*
Y115000D03*
Y123400D03*
Y137500D03*
Y145900D03*
X25000Y60000D03*
Y51600D03*
X42500Y65000D03*
X50900D03*
X42500Y75000D03*
X50900D03*
X25000Y115000D03*
Y123400D03*
X40000Y122500D03*
Y114100D03*
X25000Y137500D03*
Y145900D03*
X40000Y147500D03*
Y139100D03*
X70000Y65000D03*
X78400D03*
X55000Y95000D03*
Y103400D03*
X70000Y95000D03*
Y103400D03*
Y75000D03*
X78400D03*
X55000Y115000D03*
Y123400D03*
X70000Y122500D03*
Y114100D03*
X106600Y12500D03*
X107500Y25000D03*
X95000Y62500D03*
Y70900D03*
X109100Y72500D03*
X110000Y60000D03*
X109100Y97500D03*
Y85000D03*
X85000Y102500D03*
Y94100D03*
X109100Y110000D03*
X85000Y115000D03*
Y123400D03*
X97500Y115000D03*
Y123400D03*
X85000Y137500D03*
Y145900D03*
X97500Y137500D03*
Y145900D03*
X115000Y12500D03*
X115900Y25000D03*
X117500Y72500D03*
X137500D03*
X136600Y60000D03*
X118400D03*
X117500Y97500D03*
Y85000D03*
X136600Y97500D03*
X137500Y85000D03*
Y125000D03*
Y110000D03*
X117500D03*
X145900Y72500D03*
X145000Y60000D03*
Y97500D03*
X145900Y85000D03*
Y125000D03*
Y110000D03*
G54D14*
X10000Y101555D03*
Y92500D03*
X141555Y50000D03*
X132500D03*
G54D15*
X39500Y37300D03*
X47500Y41200D03*
X39500Y45000D03*
X62000Y37300D03*
X70000Y41200D03*
X62000Y45000D03*
X87000Y37300D03*
X95000Y41200D03*
X109500Y37300D03*
X87000Y45000D03*
X109500D03*
X117500Y41200D03*
G54D16*
X37500Y52500D03*
X45000Y87500D03*
X32500Y75000D03*
X47500Y117500D03*
X70000Y55000D03*
X55000Y85000D03*
X62500Y82500D03*
Y127500D03*
X95000Y22500D03*
X102350Y42650D03*
G54D17*
X32244Y97028D03*
G54D18*
X50000Y137500D03*
X75000D03*
X62500D03*
X95000Y12500D03*
G54D19*
X137028Y27756D03*
M02*
