G04 ================== begin FILE IDENTIFICATION RECORD ==================*
G04 Layout Name:  LAYOUT.brd*
G04 Film Name:    TOP*
G04 File Format:  Gerber RS274X*
G04 File Origin:  Cadence Allegro 16.6-2015-S059*
G04 Origin Date:  Sat Nov 23 16:01:41 2024*
G04 *
G04 Layer:  ETCH/TOP*
G04 Layer:  PIN/TOP*
G04 Layer:  VIA CLASS/TOP*
G04 *
G04 Offset:    (0.00 0.00)*
G04 Mirror:    No*
G04 Mode:      Positive*
G04 Rotation:  0*
G04 FullContactRelief:  No*
G04 UndefLineWidth:     0.00*
G04 ================== end FILE IDENTIFICATION RECORD ====================*
%FSLAX25Y25*MOIN*%
%IR0*IPPOS*OFA0.00000B0.00000*MIA0B0*SFA1.00000B1.00000*%
%ADD11R,.08X.12*%
%ADD16C,.03*%
%ADD10C,.04*%
%ADD13R,.05X.05*%
%ADD14R,.05118X.05118*%
%ADD18R,.06X.08*%
%ADD15R,.05X.036*%
%ADD12R,.048X.076*%
%ADD19R,.07874X.05118*%
%ADD17R,.05118X.07874*%
%ADD20C,.018*%
%ADD21C,.07878*%
%ADD22R,.10804X.14804*%
%ADD23R,.0792X.0792*%
%ADD25R,.07922X.0792*%
%ADD24R,.07804X.07804*%
G75*
%LPD*%
G75*
G36*
G01X7500Y5000D02*
X5000Y7500D01*
Y150000D01*
X7500Y152500D01*
X150000D01*
X152500Y150000D01*
Y7500D01*
X150000Y5000D01*
X7500D01*
G37*
%LPC*%
G75*
G36*
G01X101402Y127302D02*
Y119498D01*
X93598D01*
Y127302D01*
X95198D01*
Y133598D01*
X93598D01*
Y141402D01*
X101402D01*
Y133598D01*
X99802D01*
Y127302D01*
X101402D01*
G37*
G36*
G01X88902D02*
Y119498D01*
X81098D01*
Y127302D01*
X82698D01*
Y133598D01*
X81098D01*
Y141402D01*
X88902D01*
Y133598D01*
X87302D01*
Y127302D01*
X88902D01*
G37*
G36*
G01X28902D02*
Y119498D01*
X21098D01*
Y127302D01*
X22698D01*
Y133598D01*
X21098D01*
Y141402D01*
X28902D01*
Y133598D01*
X27302D01*
Y127302D01*
X28902D01*
G37*
G36*
G01X16402D02*
Y119498D01*
X8598D01*
Y127302D01*
X10198D01*
Y133598D01*
X8598D01*
Y141402D01*
X16402D01*
Y133598D01*
X14802D01*
Y127302D01*
X16402D01*
G37*
G36*
G01X43902Y126402D02*
Y118598D01*
X36098D01*
Y126402D01*
X37698D01*
Y135198D01*
X36098D01*
Y143002D01*
X43902D01*
Y135198D01*
X42302D01*
Y126402D01*
X43902D01*
G37*
G36*
G01X49802Y127747D02*
Y119268D01*
G02X45198I-2302J-1768D01*
G01Y129653D01*
X46961Y131416D01*
G03X46678Y132098I-283J282D01*
G01X45598D01*
Y142902D01*
X54402D01*
Y132098D01*
X52302D01*
Y130247D01*
X49802Y127747D01*
G37*
G36*
G01X149802Y88902D02*
Y81098D01*
X141998D01*
Y88902D01*
X142578D01*
G03X142861Y89584I0J400D01*
G01X142698Y89747D01*
Y93598D01*
X141098D01*
Y101402D01*
X148902D01*
Y93598D01*
X147302D01*
Y91653D01*
X148202Y90753D01*
Y88902D01*
X149802D01*
G37*
G36*
G01X98902Y68598D02*
Y66998D01*
X91098D01*
Y74802D01*
X98902D01*
Y73202D01*
X99947D01*
X101547Y74802D01*
X105198D01*
Y76402D01*
X106798D01*
Y81098D01*
X105198D01*
Y88902D01*
X106798D01*
Y93598D01*
X105198D01*
Y101402D01*
X106798D01*
Y106098D01*
X105198D01*
Y113902D01*
X106798D01*
Y117553D01*
X109047Y119802D01*
X110798D01*
Y130202D01*
X112298D01*
Y131147D01*
X110698Y132747D01*
Y135098D01*
X107598D01*
Y140198D01*
X104747D01*
X102084Y142861D01*
G03X101402Y142578I-282J-283D01*
G01Y141998D01*
X93598D01*
Y143598D01*
X88902D01*
Y141998D01*
X81098D01*
Y143598D01*
X45447D01*
X44584Y144461D01*
G03X43902Y144178I-282J-283D01*
G01Y143598D01*
X36098D01*
Y145198D01*
X32353D01*
X30753Y143598D01*
X28902D01*
Y141998D01*
X21098D01*
Y143598D01*
X16402D01*
Y141998D01*
X8598D01*
Y149802D01*
X16402D01*
Y148202D01*
X21098D01*
Y149802D01*
X28902D01*
Y149222D01*
G03X29584Y148939I400J0D01*
G01X30447Y149802D01*
X36098D01*
Y151402D01*
X43902D01*
Y149802D01*
X45753D01*
X47353Y148202D01*
X81098D01*
Y149802D01*
X88902D01*
Y148202D01*
X93598D01*
Y149802D01*
X101402D01*
Y148202D01*
X103253D01*
X106653Y144802D01*
X107598D01*
Y149902D01*
X118402D01*
Y135098D01*
X115302D01*
Y134653D01*
X116902Y133053D01*
Y130202D01*
X126302D01*
Y127302D01*
X133598D01*
Y128902D01*
X141402D01*
Y121098D01*
X139802D01*
Y113902D01*
X141402D01*
Y106098D01*
X133598D01*
Y113902D01*
X135198D01*
Y121098D01*
X133598D01*
Y122698D01*
X126302D01*
Y119798D01*
X116902D01*
Y117947D01*
X114153Y115198D01*
X111402D01*
Y113902D01*
X113002D01*
Y106098D01*
X111402D01*
Y101402D01*
X113002D01*
Y93598D01*
X111402D01*
Y88902D01*
X113002D01*
Y81098D01*
X111402D01*
Y76402D01*
X113002D01*
Y68598D01*
X105198D01*
Y70198D01*
X103453D01*
X101853Y68598D01*
X98902D01*
G37*
G36*
G01X148902Y63902D02*
Y56098D01*
X141098D01*
Y63902D01*
X142698D01*
Y65753D01*
X143598Y66653D01*
Y68598D01*
X141998D01*
Y76402D01*
X149802D01*
Y68598D01*
X148202D01*
Y64747D01*
X148039Y64584D01*
G03X148322Y63902I283J-282D01*
G01X148902D01*
G37*
G36*
G01X62059Y85368D02*
X62123Y85378D01*
X63237Y86492D01*
X67698D01*
Y91098D01*
X66098D01*
Y98902D01*
X73902D01*
Y91098D01*
X72302D01*
Y78902D01*
X73902D01*
Y71098D01*
X72302D01*
Y68902D01*
X73902D01*
Y61098D01*
X72302D01*
Y56768D01*
G02X67698I-2302J-1768D01*
G01Y61098D01*
X66098D01*
Y68902D01*
X67698D01*
Y71098D01*
X66098D01*
Y78902D01*
X67698D01*
Y81888D01*
X65341D01*
X65301Y81741D01*
G02X62059Y85368I-2801J759D01*
G37*
G36*
G01X110502Y16402D02*
Y8598D01*
X102698D01*
Y16402D01*
X104298D01*
Y20253D01*
X104461Y20416D01*
G03X104178Y21098I-283J282D01*
G01X103598D01*
Y28902D01*
X111402D01*
Y21098D01*
X109802D01*
Y19247D01*
X108902Y18347D01*
Y16402D01*
X110502D01*
G37*
G36*
G01X135402Y22402D02*
Y7598D01*
X124598D01*
Y22698D01*
X119802D01*
Y21098D01*
X111998D01*
Y28902D01*
X119802D01*
Y27302D01*
X127082D01*
X129838Y30058D01*
X131690D01*
Y31716D01*
X142366D01*
Y23796D01*
X131690D01*
Y24434D01*
G03X131007Y24717I-400J0D01*
G01X130336Y24047D01*
Y22402D01*
X135402D01*
G37*
G36*
G01X99402Y17902D02*
Y7098D01*
X90598D01*
Y17902D01*
X92698D01*
Y20732D01*
G02X97302I2302J1768D01*
G01Y17902D01*
X99402D01*
G37*
G36*
G01X47302Y89268D02*
G02X42698I-2302J-1768D01*
G01Y98478D01*
G03X42016Y98761I-400J0D01*
G01X37981Y94726D01*
X36204D01*
Y91690D01*
X28284D01*
Y102366D01*
X36204D01*
Y100425D01*
G03X36887Y100142I400J0D01*
G01X37698Y100953D01*
Y110198D01*
X36098D01*
Y118002D01*
X43902D01*
Y110198D01*
X42302D01*
Y103122D01*
G03X42984Y102839I400J0D01*
G01X45847Y105702D01*
X51098D01*
Y107302D01*
X52698D01*
Y111098D01*
X51098D01*
Y118902D01*
X58902D01*
Y111098D01*
X57302D01*
Y107302D01*
X58902D01*
Y105702D01*
X66098D01*
Y107302D01*
X73902D01*
Y99498D01*
X66098D01*
Y101098D01*
X58902D01*
Y99498D01*
X51098D01*
Y101098D01*
X47753D01*
X47302Y100647D01*
Y89268D01*
G37*
G36*
G01X29902Y25098D02*
X19098D01*
Y39902D01*
X22198D01*
Y41753D01*
X22698Y42253D01*
Y47698D01*
X21098D01*
Y49298D01*
X16402D01*
Y47698D01*
X8598D01*
Y55502D01*
X16402D01*
Y53902D01*
X21098D01*
Y55502D01*
X28902D01*
Y47698D01*
X27302D01*
Y40347D01*
X27198Y40243D01*
G03X27339Y39902I141J-141D01*
G01X29902D01*
Y34802D01*
X35598D01*
Y40502D01*
X43598D01*
Y41798D01*
X35598D01*
Y48202D01*
X37198D01*
Y49547D01*
X37123Y49623D01*
G02X39520Y54583I377J2877D01*
G03X40198Y54871I278J287D01*
G01Y61098D01*
X38598D01*
Y68902D01*
X40198D01*
Y71098D01*
X38598D01*
Y77698D01*
X34871D01*
G03X34583Y77020I-1J-400D01*
G02X29632Y74559I-2083J-2020D01*
G01X29622Y74623D01*
X24885Y79360D01*
G03X24202Y79078I-283J-283D01*
G01Y69798D01*
X14802D01*
Y63902D01*
X16402D01*
Y62302D01*
X21098D01*
Y63902D01*
X28902D01*
Y56098D01*
X21098D01*
Y57698D01*
X16402D01*
Y56098D01*
X8598D01*
Y63902D01*
X10198D01*
Y69798D01*
X8698D01*
Y80202D01*
X23078D01*
G03X23360Y80885I-1J400D01*
G01X15198Y89047D01*
Y99047D01*
X14992Y99254D01*
X13960D01*
Y97594D01*
X6040D01*
Y105516D01*
X13960D01*
Y103856D01*
X16898D01*
X19802Y100953D01*
Y90953D01*
X32877Y77878D01*
X32941Y77868D01*
G02X33473Y77734I-440J-2868D01*
G01X33592Y77692D01*
X33823Y77922D01*
X22698Y89047D01*
Y111098D01*
X21098D01*
Y112698D01*
X16402D01*
Y111098D01*
X8598D01*
Y118902D01*
X16402D01*
Y117302D01*
X21098D01*
Y118902D01*
X28902D01*
Y111098D01*
X27302D01*
Y90953D01*
X35953Y82302D01*
X41653D01*
X44802Y79153D01*
Y78902D01*
X46402D01*
Y71098D01*
X44802D01*
Y68902D01*
X46402D01*
Y61098D01*
X44802D01*
Y55953D01*
X49802Y50953D01*
Y44402D01*
X51402D01*
Y37998D01*
X43402D01*
Y34802D01*
X58098D01*
Y40502D01*
X66098D01*
Y41798D01*
X58098D01*
Y48202D01*
X59698D01*
Y49747D01*
X59247Y50198D01*
X54047D01*
X48598Y55647D01*
Y61098D01*
X46998D01*
Y68902D01*
X48598D01*
Y71098D01*
X46998D01*
Y78902D01*
X48598D01*
Y81853D01*
X52122Y85377D01*
X52132Y85441D01*
G02X52698Y86768I2869J-439D01*
G01Y91098D01*
X51098D01*
Y98902D01*
X58902D01*
Y91098D01*
X57302D01*
Y86768D01*
G02X55441Y82132I-2302J-1768D01*
G01X55377Y82122D01*
X53202Y79947D01*
Y78902D01*
X54802D01*
Y71098D01*
X53202D01*
Y68902D01*
X54802D01*
Y61098D01*
X53202D01*
Y57553D01*
X55953Y54802D01*
X61153D01*
X64302Y51653D01*
Y48202D01*
X65902D01*
Y44402D01*
X73902D01*
Y43502D01*
X75247D01*
X76098Y44353D01*
Y61098D01*
X74498D01*
Y68902D01*
X76098D01*
Y71098D01*
X74498D01*
Y78902D01*
X76098D01*
Y101853D01*
X79047Y104802D01*
X81098D01*
Y106402D01*
X82698D01*
Y111098D01*
X81098D01*
Y112698D01*
X78347D01*
X74584Y116461D01*
G03X73902Y116178I-282J-283D01*
G01Y110198D01*
X66098D01*
Y118002D01*
X72561D01*
G03X72702Y118343I0J200D01*
G01X72698Y118347D01*
Y118598D01*
X66098D01*
Y120198D01*
X59747D01*
X59584Y120361D01*
G03X58902Y120078I-282J-283D01*
G01Y119498D01*
X51098D01*
Y127302D01*
X58902D01*
Y125702D01*
X59509D01*
G03X59871Y126271I0J400D01*
G02X60198Y129268I2629J1229D01*
G01Y132098D01*
X58098D01*
Y142902D01*
X66902D01*
Y132098D01*
X64802D01*
Y129268D01*
G02X64583Y125480I-2302J-1767D01*
G03X64871Y124802I287J-278D01*
G01X66098D01*
Y126402D01*
X72698D01*
Y132098D01*
X70598D01*
Y142902D01*
X79402D01*
Y132098D01*
X77302D01*
Y120253D01*
X80253Y117302D01*
X81098D01*
Y118902D01*
X88902D01*
Y117302D01*
X93598D01*
Y118902D01*
X101402D01*
Y111098D01*
X93598D01*
Y112698D01*
X88902D01*
Y111098D01*
X87302D01*
Y106402D01*
X88902D01*
Y98598D01*
X80702D01*
Y98002D01*
X88902D01*
Y90198D01*
X87302D01*
Y55953D01*
X89302Y53953D01*
Y48202D01*
X90902D01*
Y44402D01*
X98902D01*
Y43502D01*
X99572D01*
X99620Y43634D01*
G02X101909Y45518I2730J-984D01*
G01X101973Y45528D01*
X103747Y47302D01*
X105598D01*
Y48202D01*
X107198D01*
Y55653D01*
X107302Y55757D01*
G03X107161Y56098I-141J141D01*
G01X106098D01*
Y57698D01*
X101547D01*
X99584Y59661D01*
G03X98902Y59378I-282J-283D01*
G01Y58598D01*
X91098D01*
Y66402D01*
X98902D01*
Y64802D01*
X100953D01*
X103453Y62302D01*
X106098D01*
Y63902D01*
X113902D01*
Y56098D01*
X112302D01*
Y54247D01*
X111802Y53747D01*
Y48202D01*
X113402D01*
Y44402D01*
X115198D01*
Y46253D01*
X116098Y47153D01*
Y56098D01*
X114498D01*
Y63902D01*
X115078D01*
G03X115361Y64584I0J400D01*
G01X115198Y64747D01*
Y68598D01*
X113598D01*
Y76402D01*
X115198D01*
Y81098D01*
X113598D01*
Y88902D01*
X115198D01*
Y93598D01*
X113598D01*
Y101402D01*
X115198D01*
Y106098D01*
X113598D01*
Y113902D01*
X121402D01*
Y106098D01*
X119802D01*
Y101402D01*
X121402D01*
Y99802D01*
X132698D01*
Y101402D01*
X140502D01*
Y93598D01*
X132698D01*
Y95198D01*
X121402D01*
Y93598D01*
X119802D01*
Y88902D01*
X121402D01*
Y81098D01*
X119802D01*
Y76402D01*
X121402D01*
Y68598D01*
X119802D01*
Y66653D01*
X120702Y65753D01*
Y63902D01*
X122698D01*
Y71653D01*
X125847Y74802D01*
X133598D01*
Y76402D01*
X135198D01*
Y81098D01*
X133598D01*
Y88902D01*
X141402D01*
Y81098D01*
X139802D01*
Y76402D01*
X141402D01*
Y68598D01*
X133598D01*
Y70198D01*
X127753D01*
X127302Y69747D01*
Y52753D01*
X127753Y52302D01*
X128540D01*
Y53960D01*
X136460D01*
Y46040D01*
X128540D01*
Y47698D01*
X125847D01*
X122698Y50847D01*
Y56098D01*
X120702D01*
Y45247D01*
X120539Y45084D01*
G03X120822Y44402I283J-282D01*
G01X121402D01*
Y37998D01*
X113402D01*
Y34098D01*
X111802D01*
Y32047D01*
X109953Y30198D01*
X29902D01*
Y25098D01*
G37*
G54D21*
X20000Y20000D03*
X137500Y137500D03*
G54D22*
X12500Y32500D03*
X142000Y15000D03*
X125000Y142500D03*
G54D23*
X10000Y92500D03*
G54D25*
X141555Y50000D03*
G54D24*
X115000Y12500D03*
X136600Y60000D03*
X145900Y110000D03*
Y125000D03*
%LPD*%
G75*
G54D10*
X20000Y20000D03*
X137500Y137500D03*
G54D20*
G01X12500Y24898D02*
Y32500D01*
G01D02*
Y40102D01*
G01X6898Y32500D02*
X12500D01*
G01D02*
X18102D01*
G01X20400Y69598D02*
Y75000D01*
G01X12500Y51600D02*
X25000D01*
G01X12500Y60000D02*
Y75000D01*
G01X25000Y60000D02*
X12500D01*
G01X10000Y88339D02*
Y92500D01*
G01D02*
Y96661D01*
G01X5839Y92500D02*
X10000D01*
G01D02*
X14161D01*
G01X20400Y75000D02*
Y80402D01*
G01Y75000D02*
X24402D01*
G01X32500D02*
X17500Y90000D01*
Y100000D01*
X15945Y101555D01*
X10000D01*
G01X12500Y115000D02*
X25000D01*
G01X12500Y137500D02*
Y123400D01*
G01X25000Y145900D02*
X12500D01*
G01X39500Y37300D02*
Y32500D01*
G01D02*
X24500D01*
G01X62000D02*
X39500D01*
G01X25000Y51600D02*
Y41300D01*
X24500Y40800D01*
Y32500D01*
G01X50900Y65000D02*
Y56600D01*
X55000Y52500D01*
X60200D01*
X62000Y50700D01*
Y45000D01*
G01X39500D02*
Y50500D01*
X37500Y52500D01*
G01X42500Y65000D02*
Y75000D01*
G01Y65000D02*
Y55000D01*
X47500Y50000D01*
Y41200D01*
G01X55000Y85000D02*
X50900Y80900D01*
Y75000D01*
G01X25000Y115000D02*
Y90000D01*
X35000Y80000D01*
X40700D01*
X42500Y78200D01*
Y75000D01*
G01X55000Y103400D02*
X46800D01*
X45000Y101600D01*
Y87500D01*
G01X40000Y114100D02*
Y100000D01*
X37028Y97028D01*
X32244D01*
G01X25000Y137500D02*
Y123400D01*
G01X47500Y117500D02*
Y128700D01*
X50000Y131200D01*
Y137500D01*
G01X40000Y139100D02*
Y122500D01*
G01X85000Y145900D02*
X46400D01*
X44800Y147500D01*
X40000D01*
G01D02*
X31400D01*
X29800Y145900D01*
X25000D01*
G01X62000Y32500D02*
X87000D01*
G01X62000Y37300D02*
Y32500D01*
G01X70000Y41200D02*
X76200D01*
X78400Y43400D01*
Y65000D01*
G01X50900D02*
Y75000D01*
G01X70000D02*
Y65000D01*
G01Y55000D02*
Y65000D01*
G01X78400Y75000D02*
Y65000D01*
G01X55000Y95000D02*
Y85000D01*
G01X70000Y95000D02*
Y84190D01*
G01D02*
Y75000D01*
G01Y84190D02*
X64190D01*
X62500Y82500D01*
G01X85000Y102500D02*
X80000D01*
X78400Y100900D01*
Y75000D01*
G01X70000Y109998D02*
Y114100D01*
G01X65898D02*
X70000D01*
G01D02*
X74102D01*
G01X62500Y127500D02*
Y137500D01*
G01X70000Y122500D02*
X60700D01*
X59800Y123400D01*
X55000D01*
G01Y115000D02*
Y103400D01*
G01X70000D02*
X55000D01*
G01X85000Y115000D02*
X79300D01*
X75000Y119300D01*
Y137500D01*
G01X87000Y32500D02*
X109000D01*
X109500Y33000D01*
Y37300D01*
G01X87000Y32500D02*
Y37300D01*
G01X106600Y12500D02*
Y19300D01*
X107500Y20200D01*
Y25000D01*
G01X95000Y22500D02*
Y12500D01*
G01X102350Y42650D02*
X100900Y41200D01*
X95000D01*
G01X109100Y72500D02*
X102500D01*
X100900Y70900D01*
X95000D01*
G01X87000Y45000D02*
Y53000D01*
X85000Y55000D01*
Y94100D01*
G01X110000Y60000D02*
X102500D01*
X100000Y62500D01*
X95000D01*
G01X109500Y45000D02*
Y54700D01*
X110000Y55200D01*
Y60000D01*
G01X109500Y45000D02*
X104700D01*
X102350Y42650D01*
G01X109100Y85000D02*
Y72500D01*
G01Y97500D02*
Y85000D01*
G01Y110000D02*
Y97500D01*
G01X85000Y137500D02*
Y123400D01*
G01X114600Y125000D02*
Y118900D01*
X113200Y117500D01*
X110000D01*
X109100Y116600D01*
Y110000D01*
G01X97500Y137500D02*
Y123400D01*
G01X85000Y115000D02*
X97500D01*
G01X85000Y102500D02*
Y115000D01*
G01Y145900D02*
X97500D01*
G01D02*
X102300D01*
X105700Y142500D01*
X113000D01*
G01X115000Y8398D02*
Y12500D01*
G01X115900Y25000D02*
X128035D01*
G01D02*
X130791Y27756D01*
X137028D01*
G01X130000Y15000D02*
Y17499D01*
X128035Y19464D01*
Y25000D01*
G01X136398Y15000D02*
X142000D01*
G01X115000Y12500D02*
Y16602D01*
G01Y12500D02*
X119102D01*
G01X136600Y55898D02*
Y60000D01*
G01D02*
Y64102D01*
G01X132498Y60000D02*
X136600D01*
G01X137394Y50000D02*
X141555D01*
G01X132500D02*
X126800D01*
X125000Y51800D01*
Y70700D01*
X126800Y72500D01*
X137500D01*
G01X118400Y60000D02*
Y46200D01*
X117500Y45300D01*
Y41200D01*
G01Y72500D02*
Y65700D01*
X118400Y64800D01*
Y60000D01*
G01X137500Y85000D02*
Y72500D01*
G01X117500Y97500D02*
Y110000D01*
G01Y85000D02*
Y97500D01*
G01Y72500D02*
Y85000D01*
G01X136600Y97500D02*
X117500D01*
G01X137500Y110000D02*
Y125000D01*
G01X122500D02*
X137500D01*
G01X113000Y142500D02*
Y133700D01*
X114600Y132100D01*
Y125000D01*
G01X125000Y134898D02*
Y142500D01*
G01D02*
Y150102D01*
G01X119398Y142500D02*
X125000D01*
G01D02*
X130602D01*
G01X142000Y7398D02*
Y15000D01*
G01D02*
Y22602D01*
G01Y15000D02*
X147602D01*
G01X141555Y45839D02*
Y50000D01*
G01D02*
Y54161D01*
G01Y50000D02*
X145716D01*
G01X145900Y72500D02*
Y65700D01*
X145000Y64800D01*
Y60000D01*
G01Y97500D02*
Y90700D01*
X145900Y89800D01*
Y85000D01*
G01Y120898D02*
Y125000D01*
G01D02*
Y129102D01*
G01Y125000D02*
X150002D01*
G01X145900Y105898D02*
Y110000D01*
G01D02*
Y114102D01*
G01Y110000D02*
X150002D01*
G54D11*
X24500Y32500D03*
X12500D03*
X113000Y142500D03*
X142000Y15000D03*
X130000D03*
X125000Y142500D03*
G54D12*
X12500Y75000D03*
X20400D03*
X122500Y125000D03*
X114600D03*
G54D13*
X12500Y60000D03*
Y51600D03*
Y115000D03*
Y123400D03*
Y137500D03*
Y145900D03*
X25000Y60000D03*
Y51600D03*
X42500Y65000D03*
X50900D03*
X42500Y75000D03*
X50900D03*
X25000Y115000D03*
Y123400D03*
X40000Y122500D03*
Y114100D03*
X25000Y137500D03*
Y145900D03*
X40000Y147500D03*
Y139100D03*
X70000Y65000D03*
X78400D03*
X55000Y95000D03*
Y103400D03*
X70000Y95000D03*
Y103400D03*
Y75000D03*
X78400D03*
X55000Y115000D03*
Y123400D03*
X70000Y122500D03*
Y114100D03*
X106600Y12500D03*
X107500Y25000D03*
X95000Y62500D03*
Y70900D03*
X109100Y72500D03*
X110000Y60000D03*
X109100Y97500D03*
Y85000D03*
X85000Y102500D03*
Y94100D03*
X109100Y110000D03*
X85000Y115000D03*
Y123400D03*
X97500Y115000D03*
Y123400D03*
X85000Y137500D03*
Y145900D03*
X97500Y137500D03*
Y145900D03*
X115000Y12500D03*
X115900Y25000D03*
X117500Y72500D03*
X137500D03*
X136600Y60000D03*
X118400D03*
X117500Y97500D03*
Y85000D03*
X136600Y97500D03*
X137500Y85000D03*
Y125000D03*
Y110000D03*
X117500D03*
X145900Y72500D03*
X145000Y60000D03*
Y97500D03*
X145900Y85000D03*
Y125000D03*
Y110000D03*
G54D14*
X10000Y101555D03*
Y92500D03*
X141555Y50000D03*
X132500D03*
G54D15*
X39500Y37300D03*
X47500Y41200D03*
X39500Y45000D03*
X62000Y37300D03*
X70000Y41200D03*
X62000Y45000D03*
X87000Y37300D03*
X95000Y41200D03*
X109500Y37300D03*
X87000Y45000D03*
X109500D03*
X117500Y41200D03*
G54D16*
X37500Y52500D03*
X45000Y87500D03*
X32500Y75000D03*
X47500Y117500D03*
X70000Y55000D03*
X55000Y85000D03*
X62500Y82500D03*
Y127500D03*
X95000Y22500D03*
X102350Y42650D03*
G54D17*
X32244Y97028D03*
G54D18*
X50000Y137500D03*
X75000D03*
X62500D03*
X95000Y12500D03*
G54D19*
X137028Y27756D03*
M02*
